<?xml version="1.0" encoding="UTF-8"?>
<!DOCTYPE svg PUBLIC "-//W3C//DTD SVG 1.1//EN" "http://www.w3.org/Graphics/SVG/1.1/DTD/svg11.dtd">
<!-- Creator: CorelDRAW 2020 (64-Bit) -->
<svg xmlns="http://www.w3.org/2000/svg" xml:space="preserve" width="3.3758mm" height="3.9948mm" version="1.1" style="shape-rendering:geometricPrecision; text-rendering:geometricPrecision; image-rendering:optimizeQuality; fill-rule:evenodd; clip-rule:evenodd"
viewBox="0 0 4.47 5.29"
 xmlns:xlink="http://www.w3.org/1999/xlink"
 xmlns:xodm="http://www.corel.com/coreldraw/odm/2003">
 <defs>
  <style type="text/css">
   <![CDATA[
    .str0 {stroke:#2B2A29;stroke-width:0.26;stroke-miterlimit:22.9256}
    .str1 {stroke:#1F1B20;stroke-width:0.1;stroke-miterlimit:22.9256}
    .fil1 {fill:black}
    .fil0 {fill:white}
   ]]>
  </style>
 </defs>
 <g id="Capa_x0020_1">
  <metadata id="CorelCorpID_0Corel-Layer"/>
  <path class="fil0 str0" d="M0.58 5.16c-0.01,-0.01 -0.04,-0.01 -0.08,-0.04 -0.08,-0.06 -0.06,-0.18 -0.06,-0.28l0 -1.8c0,-0.08 0,-0.26 -0,-0.33 -0,-0.04 0.01,-0.12 -0.01,-0.15 -0,-0.01 -0.02,-0.02 -0.03,-0.03l-0.22 -0.24c-0.04,-0.04 -0.06,-0.04 -0.07,-0.1 -0.02,-0.11 0.07,-0.16 0.13,-0.2l0.49 -0.3c0.03,-0.01 0.05,-0.03 0.07,-0.04l0.35 -0.21c0.03,-0.02 0.05,-0.03 0.07,-0.04l0.49 -0.3c0.02,-0.01 0.04,-0.03 0.07,-0.04l1.47 -0.89c0.08,-0.04 0.19,-0.01 0.22,0.08 0.04,0.11 0.09,0.21 0.13,0.32 0.03,0.07 0.09,0.17 0,0.25 -0.04,0.04 -0.33,0.22 -0.41,0.26 -0.21,0.13 -0.42,0.26 -0.62,0.39l-0.21 0.13c-0.23,0.14 -0.47,0.29 -0.7,0.43l-0.63 0.38c-0.05,0.03 -0.09,0.05 -0.14,0.08 -0.02,0.01 -0.12,0.08 -0.13,0.09l3.34 0c0.08,0 0.11,0 0.16,0.04 0.04,0.03 0.06,0.07 0.06,0.14 -0,0.71 0,1.44 0,2.15 0,0.07 0.01,0.13 -0.02,0.17 -0.03,0.06 -0.06,0.06 -0.11,0.08l-3.62 0z"/>
  <path class="fil1" d="M1.86 3l0.61 0c0.05,0 0.04,-0 0.07,-0.02l0.47 -0.23 -0.61 0c-0.07,-0 -0.04,-0 -0.13,0.04 -0.03,0.02 -0.39,0.19 -0.41,0.2z"/>
  <path class="fil1" d="M0.72 3l0.6 0c0.06,0 0.04,0 0.07,-0.01 0.05,-0.02 0.44,-0.22 0.46,-0.23l-0.6 0c-0.06,-0 -0.04,-0 -0.07,0.01l-0.35 0.18c-0.03,0.01 -0.08,0.04 -0.1,0.05z"/>
  <path class="fil1" d="M2.99 3l0.6 0c0.07,0 0.04,0.01 0.13,-0.04l0.17 -0.09c0.01,-0.01 0.01,-0.01 0.02,-0.01 0.04,-0.02 0.12,-0.06 0.15,-0.07 0.01,-0.01 0.01,-0.01 0.02,-0.01 0.01,-0.01 0.02,-0.01 0.02,-0.01l-0.6 0c-0.06,-0 -0.05,0 -0.12,0.04 -0.03,0.01 -0.38,0.19 -0.4,0.2z"/>
  <path class="fil1" d="M2.69 1.14c0.02,-0.01 0.05,-0.03 0.07,-0.04l0.52 -0.33 0.08 -0.54 -0.54 0.35c-0.03,0.02 -0.03,0.02 -0.04,0.06l-0.09 0.51z"/>
  <path class="fil1" d="M0.61 2.44c0.02,-0.01 0.04,-0.02 0.06,-0.04l0.48 -0.31c0.04,-0.02 0.03,-0.01 0.04,-0.06 0.01,-0.05 0.02,-0.11 0.03,-0.17l0.06 -0.34c-0.12,0.06 -0.4,0.26 -0.54,0.35 -0.03,0.02 -0.03,0.01 -0.04,0.06 -0.01,0.06 -0.02,0.12 -0.03,0.17l-0.04 0.25c-0.01,0.03 -0.01,0.06 -0.01,0.09z"/>
  <path class="fil1" d="M1.67 1.77c0.02,-0.01 0.22,-0.14 0.25,-0.15l0.24 -0.15c0.09,-0.06 0.09,-0.04 0.1,-0.1l0.08 -0.42c0,-0.02 0.01,-0.06 0.02,-0.09 -0.16,0.11 -0.38,0.23 -0.55,0.34 -0.04,0.02 -0.03,0.01 -0.04,0.06l-0.09 0.51z"/>
  <g id="_2892868133344">
   <path class="fil1 str1" d="M2.58 4.85c0.2,-0.01 0.27,0.03 0.35,-0.15 0.05,-0.1 0.14,-0.24 0.17,-0.33l-0.05 0.03c-0.02,0.01 -0.03,0.02 -0.05,0.02 -0.04,0.01 -0.08,0.02 -0.13,0.02 -0.06,0 -0.25,0.01 -0.29,-0l-0.01 -0.11c-0.02,0.02 -0.18,0.3 -0.18,0.32 0,0.02 0.16,0.3 0.17,0.32l0.01 -0.12z"/>
   <path class="fil1 str1" d="M2.63 3.4l-0.46 0c0.06,0.05 0.11,0.04 0.19,0.19 0.05,0.08 0.09,0.16 0.13,0.25l-0.05 0.03c-0.02,0.01 -0.03,0.02 -0.05,0.03l0.36 -0.01 0.01 -0.02c0.01,-0.01 0.01,-0.02 0.02,-0.04l0.14 -0.24 -0.11 0.05c-0.03,-0.04 -0.06,-0.1 -0.08,-0.14 -0.05,-0.08 -0.05,-0.06 -0.13,-0.1z"/>
   <path class="fil1 str1" d="M1.6 4.37l0.1 0.19c0.17,0.33 0.12,0.28 0.58,0.29l-0 -0.4c-0.12,0 -0.26,-0 -0.38,-0 -0.06,-0 -0.12,0 -0.18,-0.01 -0.07,-0.02 -0.09,-0.05 -0.12,-0.06z"/>
   <path class="fil1 str1" d="M1.56 4.23l0 0.04c0.02,0.03 0.02,0.05 0.05,0.08 0.01,0.02 0.04,0.04 0.06,0.05 0.06,0.03 0.13,0.03 0.2,0.03 0.02,-0.01 0.01,0 0.03,-0.03 0.01,-0.01 0.01,-0.02 0.02,-0.03 0.02,-0.04 0.09,-0.15 0.11,-0.17 0.03,0.02 0.07,0.04 0.1,0.05 -0.01,-0.02 -0.16,-0.32 -0.18,-0.34l-0.37 0 0.1 0.08 -0.11 0.23z"/>
   <path class="fil1 str1" d="M2.18 3.93c0.03,-0.04 0.05,-0.08 0.08,-0.12 0.12,-0.19 0.12,-0.16 0.07,-0.24 -0.05,-0.07 -0.13,-0.17 -0.23,-0.16 -0.06,0.01 -0.08,0.04 -0.11,0.08 -0.03,0.05 -0.14,0.2 -0.15,0.24 0.05,0.01 0.28,0.17 0.34,0.19z"/>
   <path class="fil1 str1" d="M3.15 4.27l0 -0.05 -0.16 -0.31c-0.02,0.01 -0.06,0.04 -0.09,0.05 -0.03,0.02 -0.05,0.03 -0.08,0.05 -0.03,0.02 -0.14,0.08 -0.17,0.11 0.03,0.06 0.15,0.26 0.16,0.3 0.08,-0 0.15,-0 0.22,-0.03 0.1,-0.04 0.09,-0.06 0.12,-0.12z"/>
  </g>
 </g>
</svg>
