<?xml version="1.0" encoding="UTF-8"?>
<!DOCTYPE svg PUBLIC "-//W3C//DTD SVG 1.1//EN" "http://www.w3.org/Graphics/SVG/1.1/DTD/svg11.dtd">
<!-- Creator: CorelDRAW 2020 (64-Bit) -->
<svg xmlns="http://www.w3.org/2000/svg" xml:space="preserve" width="3.3757mm" height="3.9948mm" version="1.1" style="shape-rendering:geometricPrecision; text-rendering:geometricPrecision; image-rendering:optimizeQuality; fill-rule:evenodd; clip-rule:evenodd"
viewBox="0 0 4.59 5.44"
 xmlns:xlink="http://www.w3.org/1999/xlink"
 xmlns:xodm="http://www.corel.com/coreldraw/odm/2003">
 <defs>
  <style type="text/css">
   <![CDATA[
    .str0 {stroke:#2B2A29;stroke-width:0.27;stroke-miterlimit:22.9256}
    .str1 {stroke:#2B2A29;stroke-width:0.1;stroke-miterlimit:22.9256}
    .fil1 {fill:black}
    .fil0 {fill:white}
   ]]>
  </style>
 </defs>
 <g id="Capa_x0020_1">
  <metadata id="CorelCorpID_0Corel-Layer"/>
  <path class="fil0 str0" d="M0.6 5.3c-0.01,-0.01 -0.04,-0.01 -0.08,-0.04 -0.08,-0.07 -0.06,-0.19 -0.06,-0.29l0 -1.85c0,-0.08 0,-0.27 -0,-0.34 -0,-0.04 0.01,-0.12 -0.01,-0.16 -0,-0.01 -0.02,-0.02 -0.03,-0.03l-0.22 -0.24c-0.04,-0.04 -0.06,-0.05 -0.07,-0.11 -0.02,-0.12 0.07,-0.17 0.14,-0.21l0.5 -0.31c0.03,-0.02 0.05,-0.03 0.07,-0.04l0.36 -0.22c0.03,-0.02 0.05,-0.03 0.07,-0.04l0.5 -0.31c0.02,-0.01 0.05,-0.03 0.07,-0.04l1.51 -0.92c0.08,-0.04 0.19,-0.01 0.23,0.08 0.04,0.11 0.09,0.22 0.13,0.33 0.03,0.08 0.09,0.17 0,0.26 -0.04,0.04 -0.34,0.22 -0.42,0.27 -0.21,0.13 -0.43,0.27 -0.64,0.4l-0.22 0.13c-0.24,0.14 -0.48,0.3 -0.72,0.44l-0.65 0.39c-0.05,0.03 -0.1,0.06 -0.15,0.09 -0.02,0.01 -0.12,0.08 -0.13,0.09l3.43 0c0.08,-0 0.11,0 0.16,0.04 0.04,0.03 0.06,0.07 0.06,0.14 -0,0.73 -0,1.48 -0,2.21 0,0.07 0.01,0.13 -0.02,0.18 -0.03,0.06 -0.06,0.06 -0.12,0.08l-3.72 0z"/>
  <path class="fil1" d="M1.91 3.08l0.63 0c0.05,0 0.04,-0 0.07,-0.02l0.48 -0.23 -0.63 0c-0.07,-0 -0.04,-0 -0.13,0.04 -0.03,0.02 -0.4,0.2 -0.42,0.21z"/>
  <path class="fil1" d="M0.74 3.08l0.62 0c0.06,0 0.04,0 0.07,-0.02 0.05,-0.02 0.45,-0.22 0.47,-0.23l-0.62 0c-0.06,-0 -0.04,-0 -0.07,0.02l-0.36 0.18c-0.03,0.01 -0.09,0.04 -0.1,0.05z"/>
  <path class="fil1" d="M3.07 3.08l0.62 0c0.07,0 0.04,0.01 0.13,-0.04l0.18 -0.09c0.01,-0.01 0.01,-0.01 0.02,-0.01 0.04,-0.02 0.12,-0.06 0.15,-0.08 0.01,-0.01 0.01,-0.01 0.02,-0.01 0.01,-0.01 0.02,-0.01 0.03,-0.01l-0.62 0c-0.06,-0 -0.05,0.01 -0.12,0.04 -0.03,0.02 -0.39,0.19 -0.41,0.21z"/>
  <path class="fil1" d="M2.77 1.18c0.02,-0.01 0.05,-0.03 0.08,-0.05l0.53 -0.34 0.08 -0.55 -0.56 0.36c-0.03,0.02 -0.03,0.02 -0.04,0.06l-0.09 0.52z"/>
  <path class="fil1" d="M0.62 2.5c0.02,-0.01 0.04,-0.02 0.06,-0.04l0.49 -0.32c0.04,-0.02 0.03,-0.01 0.04,-0.06 0.01,-0.06 0.02,-0.11 0.03,-0.17l0.06 -0.35c-0.12,0.07 -0.41,0.27 -0.56,0.35 -0.04,0.02 -0.03,0.01 -0.04,0.06 -0.01,0.06 -0.02,0.12 -0.03,0.17l-0.05 0.26c-0.01,0.03 -0.01,0.06 -0.01,0.09z"/>
  <path class="fil1" d="M1.71 1.82c0.02,-0.01 0.23,-0.14 0.25,-0.15l0.25 -0.16c0.09,-0.06 0.09,-0.04 0.1,-0.1l0.08 -0.43c0.01,-0.03 0.01,-0.07 0.02,-0.09 -0.16,0.11 -0.39,0.24 -0.56,0.35 -0.04,0.03 -0.03,0.01 -0.04,0.06l-0.1 0.52z"/>
  <rect class="fil1 str1" transform="matrix(2.47897E-16 0.00936009 -0.00936006 2.47898E-16 3.45158 3.96908)" width="57.61" height="195.88"/>
 </g>
</svg>
