<?xml version="1.0" encoding="UTF-8"?>
<!DOCTYPE svg PUBLIC "-//W3C//DTD SVG 1.1//EN" "http://www.w3.org/Graphics/SVG/1.1/DTD/svg11.dtd">
<!-- Creator: CorelDRAW 2020 (64-Bit) -->
<svg xmlns="http://www.w3.org/2000/svg" xml:space="preserve" width="3.3757mm" height="3.9948mm" version="1.1" style="shape-rendering:geometricPrecision; text-rendering:geometricPrecision; image-rendering:optimizeQuality; fill-rule:evenodd; clip-rule:evenodd"
viewBox="0 0 4.74 5.6"
 xmlns:xlink="http://www.w3.org/1999/xlink"
 xmlns:xodm="http://www.corel.com/coreldraw/odm/2003">
 <defs>
  <style type="text/css">
   <![CDATA[
    .str0 {stroke:#2B2A29;stroke-width:0.28;stroke-miterlimit:22.9256}
    .str1 {stroke:#2B2A29;stroke-width:0.11;stroke-miterlimit:22.9256}
    .fil1 {fill:black}
    .fil0 {fill:white}
   ]]>
  </style>
 </defs>
 <g id="Capa_x0020_1">
  <metadata id="CorelCorpID_0Corel-Layer"/>
  <path class="fil0 str0" d="M0.62 5.46c-0.01,-0.01 -0.04,-0.01 -0.08,-0.04 -0.08,-0.07 -0.06,-0.19 -0.06,-0.3l0 -1.91c0,-0.08 0,-0.28 -0,-0.35 -0,-0.04 0.01,-0.13 -0.01,-0.16 -0,-0.01 -0.02,-0.02 -0.03,-0.03l-0.23 -0.25c-0.04,-0.04 -0.06,-0.05 -0.07,-0.11 -0.02,-0.12 0.08,-0.17 0.14,-0.21l0.52 -0.32c0.03,-0.02 0.05,-0.03 0.07,-0.04l0.37 -0.23c0.03,-0.02 0.05,-0.03 0.07,-0.04l0.52 -0.32c0.03,-0.02 0.05,-0.03 0.07,-0.05l1.56 -0.95c0.08,-0.05 0.2,-0.01 0.24,0.08 0.05,0.11 0.09,0.22 0.14,0.34 0.03,0.08 0.09,0.18 0,0.27 -0.04,0.04 -0.35,0.23 -0.44,0.28 -0.22,0.13 -0.44,0.28 -0.66,0.41l-0.22 0.14c-0.25,0.15 -0.49,0.31 -0.74,0.45l-0.67 0.4c-0.05,0.03 -0.1,0.06 -0.15,0.09 -0.02,0.01 -0.13,0.08 -0.14,0.1l3.54 0c0.08,-0 0.12,0 0.16,0.04 0.04,0.03 0.06,0.08 0.06,0.15 -0,0.76 -0,1.52 -0,2.28 0,0.07 0.01,0.14 -0.02,0.18 -0.03,0.06 -0.06,0.06 -0.12,0.09l-3.83 0z"/>
  <path class="fil1" d="M1.97 3.18l0.65 0c0.05,0 0.04,-0 0.07,-0.02l0.49 -0.24 -0.65 0c-0.07,-0 -0.05,-0 -0.13,0.04 -0.03,0.02 -0.41,0.2 -0.43,0.22z"/>
  <path class="fil1" d="M0.77 3.18l0.64 0c0.06,0 0.05,0 0.08,-0.02 0.05,-0.03 0.46,-0.23 0.48,-0.24l-0.64 0c-0.06,-0 -0.05,-0 -0.08,0.02l-0.37 0.19c-0.03,0.01 -0.09,0.04 -0.11,0.05z"/>
  <path class="fil1" d="M3.17 3.18l0.64 0c0.07,0 0.04,0.01 0.13,-0.04l0.18 -0.09c0.01,-0.01 0.01,-0.01 0.02,-0.02 0.04,-0.02 0.13,-0.06 0.16,-0.08 0.01,-0.01 0.01,-0.01 0.02,-0.01 0.01,-0.01 0.02,-0.01 0.03,-0.01l-0.64 0c-0.06,-0 -0.05,0.01 -0.13,0.04 -0.03,0.02 -0.41,0.2 -0.42,0.21z"/>
  <path class="fil1" d="M2.85 1.21c0.02,-0.01 0.06,-0.03 0.08,-0.05l0.55 -0.35 0.09 -0.57 -0.57 0.37c-0.03,0.02 -0.03,0.02 -0.04,0.06l-0.1 0.54z"/>
  <path class="fil1" d="M0.64 2.58c0.02,-0.01 0.04,-0.03 0.06,-0.04l0.51 -0.33c0.04,-0.02 0.03,-0.01 0.04,-0.06 0.01,-0.06 0.02,-0.12 0.03,-0.18l0.06 -0.36c-0.13,0.07 -0.43,0.28 -0.57,0.37 -0.04,0.02 -0.04,0.01 -0.04,0.06 -0.01,0.06 -0.02,0.12 -0.03,0.18l-0.05 0.27c-0.01,0.03 -0.01,0.06 -0.01,0.09z"/>
  <path class="fil1" d="M1.77 1.87c0.02,-0.01 0.24,-0.14 0.26,-0.16l0.26 -0.16c0.09,-0.06 0.09,-0.04 0.1,-0.1l0.09 -0.44c0.01,-0.03 0.01,-0.07 0.02,-0.09 -0.17,0.11 -0.4,0.24 -0.58,0.36 -0.04,0.03 -0.03,0.01 -0.04,0.06l-0.1 0.54z"/>
  <polygon class="fil1 str1" points="3.46,4.1 3.46,4.66 2.8,4.66 2.8,5.32 2.24,5.32 2.24,4.66 1.57,4.66 1.57,4.1 2.24,4.1 2.24,3.43 2.8,3.43 2.8,4.1 "/>
 </g>
</svg>
